# xmcd
#
# Track frame offsets: 
#        9150
#        22347
#        35685
#        48148
#        62783
#        76566
#        90058
#        105198
#        118075
#        131060
#        143955
#        156506
#        169528
#
# Disc length: 2417 seconds
#
# Revision: 1
# Processed by: cddbd v1.5.2PL0 Copyright (c) Steve Scherf et al.
# Submitted via: ExactAudioCopy v1.1
#
DISCID=a308f70d
DTITLE=Mississippi John Hurt - 1928 Sessions
DYEAR=1990
DGENRE=Blues
TTITLE0=Ain't No Tellin
TTITLE1=Stack O Lee Blues
TTITLE2=Candy Man Blues
TTITLE3=Spike Driver Blues
TTITLE4=Avalon Blues
TTITLE5=Louis Collins
TTITLE6=Frankie
TTITLE7=Big Leg Blues
TTITLE8=Nobody's Dirty Business
TTITLE9=Got The Blues, Can't Be Satisfied
TTITLE10=Blessed Be Thy name
TTITLE11=Blue Harvest Blues
TTITLE12=Praying On The Old Camp Ground
EXTD=YEAR: 1928
EXTT0=
EXTT1=
EXTT2=
EXTT3=
EXTT4=
EXTT5=
EXTT6=
EXTT7=
EXTT8=
EXTT9=
EXTT10=
EXTT11=
EXTT12=
PLAYORDER=
